<svg width="1040" height="760" viewBox="0 0 1040 760" fill="none" xmlns="http://www.w3.org/2000/svg">
  <rect width="1040" height="760" fill="#F8FBF8"/>
  <rect x="42" y="42" width="956" height="676" rx="28" fill="#FFFFFF" stroke="#DCE5DE" stroke-width="2"/>
  <rect x="82" y="86" width="876" height="64" rx="16" fill="#162016"/>
  <circle cx="122" cy="118" r="13" fill="#C7E86A"/>
  <circle cx="162" cy="118" r="13" fill="#79C7D9"/>
  <circle cx="202" cy="118" r="13" fill="#EF8D69"/>
  <rect x="740" y="103" width="172" height="30" rx="15" fill="#F8FBF8"/>
  <rect x="82" y="184" width="250" height="448" rx="18" fill="#F1F6F2" stroke="#DCE5DE"/>
  <rect x="118" y="222" width="130" height="18" rx="9" fill="#1D6B4F"/>
  <rect x="118" y="270" width="172" height="14" rx="7" fill="#A9B8AE"/>
  <rect x="118" y="310" width="144" height="14" rx="7" fill="#A9B8AE"/>
  <rect x="118" y="350" width="184" height="14" rx="7" fill="#A9B8AE"/>
  <rect x="118" y="414" width="176" height="42" rx="10" fill="#FFFFFF" stroke="#DCE5DE"/>
  <rect x="118" y="474" width="176" height="42" rx="10" fill="#FFFFFF" stroke="#DCE5DE"/>
  <rect x="118" y="534" width="176" height="42" rx="10" fill="#FFFFFF" stroke="#DCE5DE"/>
  <rect x="374" y="184" width="584" height="210" rx="20" fill="#EAF6EF" stroke="#DCE5DE"/>
  <path d="M420 328C470 265 531 303 570 259C604 220 655 226 684 279C711 329 760 344 812 306C849 279 889 288 914 320V356H420V328Z" fill="#1D6B4F"/>
  <circle cx="812" cy="250" r="35" fill="#C7E86A"/>
  <rect x="374" y="428" width="176" height="204" rx="18" fill="#FFFFFF" stroke="#DCE5DE"/>
  <rect x="410" y="464" width="64" height="64" rx="18" fill="#C7E86A"/>
  <rect x="410" y="552" width="104" height="14" rx="7" fill="#162016"/>
  <rect x="410" y="584" width="96" height="12" rx="6" fill="#A9B8AE"/>
  <rect x="578" y="428" width="176" height="204" rx="18" fill="#FFFFFF" stroke="#DCE5DE"/>
  <rect x="614" y="464" width="64" height="64" rx="18" fill="#79C7D9"/>
  <rect x="614" y="552" width="106" height="14" rx="7" fill="#162016"/>
  <rect x="614" y="584" width="92" height="12" rx="6" fill="#A9B8AE"/>
  <rect x="782" y="428" width="176" height="204" rx="18" fill="#FFFFFF" stroke="#DCE5DE"/>
  <rect x="818" y="464" width="64" height="64" rx="18" fill="#EF8D69"/>
  <rect x="818" y="552" width="102" height="14" rx="7" fill="#162016"/>
  <rect x="818" y="584" width="98" height="12" rx="6" fill="#A9B8AE"/>
</svg>
